<!DOCTYPE svg PUBLIC "-//W3C//DTD SVG 1.1//EN" "http://www.w3.org/Graphics/SVG/1.1/DTD/svg11.dtd">
<svg xmlns="http://www.w3.org/2000/svg" xmlns:xlink="http://www.w3.org/1999/xlink" version="1.1" width="405.4187991653426" height="85.45709064014787" viewBox="55.22514737140713 178.4971873124386 405.4187991653426 85.45709064014787" xml:space="preserve">
<desc>Created with Fabric.js 4.6.0</desc>
<defs>
</defs>
<g transform="matrix(1 -0.1 0.1 1 257.93 221.23)" id="yFiX0YaFFlCl0GnRBO4t_"  >
<path style="stroke: none; stroke-width: 1; stroke-dasharray: none; stroke-linecap: butt; stroke-dashoffset: 0; stroke-linejoin: miter; stroke-miterlimit: 4; fill: rgb(0,0,0); fill-rule: nonzero; opacity: 1;" vector-effect="non-scaling-stroke"  transform=" translate(-257.93, -221.23)" d="M 74.104 236.283 L 74.104 236.283 Q 73.48 236.331 72.976 236.019 Q 72.472 235.707 72.28 235.227 L 72.28 235.227 Q 72.088 234.987 71.704 234.411 Q 71.32 233.835 71.224 233.259 L 71.224 233.259 Q 71.08 231.723 71.056 230.283 Q 71.032 228.843 71.176 226.251 L 71.176 226.251 Q 71.32 224.139 71.728 222.147 Q 72.136 220.155 72.544 218.571 Q 72.952 216.987 73.192 216.051 Q 73.432 215.115 73.288 215.115 L 73.288 215.115 Q 73.096 215.115 72.712 215.811 Q 72.328 216.507 71.848 217.515 Q 71.368 218.523 70.888 219.507 Q 70.408 220.491 70.072 221.115 L 70.072 221.115 Q 69.4 222.603 68.512 224.259 Q 67.624 225.915 66.712 227.451 Q 65.8 228.987 65.128 230.139 L 65.128 230.139 Q 64.696 230.619 64.12 231.507 Q 63.544 232.395 62.872 233.355 Q 62.2 234.315 61.48 234.939 L 61.48 234.939 Q 60.424 235.947 59.392 236.043 Q 58.36 236.139 57.64 235.515 L 57.64 235.515 Q 57.496 235.323 57.328 235.059 Q 57.16 234.795 57.064 234.363 Q 56.968 233.931 57.112 233.355 L 57.112 233.355 Q 57.064 232.683 57.136 231.267 Q 57.208 229.851 57.4 228.147 Q 57.592 226.443 57.808 224.859 Q 58.024 223.275 58.216 222.219 L 58.216 222.219 Q 58.648 219.147 59.392 215.931 Q 60.136 212.715 60.76 209.451 L 60.76 209.451 Q 61.144 208.491 61.456 207.267 Q 61.768 206.043 62.104 204.987 L 62.104 204.987 Q 62.152 203.931 62.584 203.571 Q 63.016 203.211 63.568 203.331 Q 64.12 203.451 64.456 203.931 L 64.456 203.931 Q 64.936 204.411 65.2 205.419 Q 65.464 206.427 64.792 207.963 L 64.792 207.963 Q 63.832 210.315 62.944 213.699 Q 62.056 217.083 61.336 221.883 L 61.336 221.883 Q 61.144 223.035 60.904 224.619 Q 60.664 226.203 60.472 227.691 Q 60.28 229.179 60.208 230.187 Q 60.136 231.195 60.232 231.243 L 60.232 231.243 Q 60.616 231.339 61.288 230.643 Q 61.96 229.947 62.488 228.795 L 62.488 228.795 Q 64.456 225.531 66.4 221.955 Q 68.344 218.379 70.12 214.875 L 70.12 214.875 Q 70.936 213.483 71.776 211.827 Q 72.616 210.171 73.384 208.779 L 73.384 208.779 Q 74.2 207.339 74.872 206.163 Q 75.544 204.987 76.024 204.219 Q 76.504 203.451 76.792 203.355 L 76.792 203.355 Q 77.56 203.403 78.112 203.715 Q 78.664 204.027 79.048 204.987 L 79.048 204.987 Q 79.144 205.227 79 205.803 Q 78.856 206.379 78.664 206.811 L 78.664 206.811 Q 78.616 207.147 78.256 208.203 Q 77.896 209.259 77.608 210.555 L 77.608 210.555 Q 77.128 211.851 76.768 213.123 Q 76.408 214.395 76.264 215.211 L 76.264 215.211 Q 75.88 217.275 75.304 219.747 Q 74.728 222.219 74.32 224.643 Q 73.912 227.067 73.864 228.987 L 73.864 228.987 Q 73.816 230.331 73.888 231.099 Q 73.96 231.867 74.152 232.299 L 74.152 232.299 Q 74.248 232.683 74.752 232.779 Q 75.256 232.875 75.592 232.443 L 75.592 232.443 Q 76.552 231.243 77.248 230.259 Q 77.944 229.275 78.568 228.243 Q 79.192 227.211 79.864 225.915 L 79.864 225.915 Q 81.064 223.707 82.336 220.995 Q 83.608 218.283 84.784 215.595 Q 85.96 212.907 86.824 210.891 L 86.824 210.891 Q 87.736 208.299 88.288 206.763 Q 88.84 205.227 89.272 204.459 Q 89.704 203.691 90.184 203.403 L 90.184 203.403 Q 90.424 203.211 90.856 203.211 Q 91.288 203.211 91.72 203.595 L 91.72 203.595 Q 91.912 203.787 92.08 204.195 Q 92.248 204.603 92.2 205.179 L 92.2 205.179 Q 91.96 205.947 91.36 207.627 Q 90.76 209.307 89.992 211.323 Q 89.224 213.339 88.504 215.163 Q 87.784 216.987 87.256 218.091 L 87.256 218.091 Q 86.728 219.099 86.248 219.819 Q 85.768 220.539 85.768 220.923 L 85.768 220.923 Q 85.768 221.115 85.288 222.099 Q 84.808 223.083 84.064 224.475 Q 83.32 225.867 82.456 227.355 Q 81.592 228.843 80.824 230.091 Q 80.056 231.339 79.528 232.011 L 79.528 232.011 Q 78.328 233.499 77.2 234.459 Q 76.072 235.419 75.256 235.851 Q 74.44 236.283 74.104 236.283 Z M 98.488 232.059 L 98.488 232.059 Q 97.48 232.923 96.16 233.067 Q 94.84 233.211 93.592 232.659 Q 92.344 232.107 91.528 230.955 L 91.528 230.955 Q 90.712 229.899 90.472 228.531 Q 90.232 227.163 90.424 224.955 L 90.424 224.955 Q 90.568 223.083 91.624 221.187 Q 92.68 219.291 94.192 217.803 Q 95.704 216.315 97.192 215.739 L 97.192 215.739 Q 97.912 215.259 98.416 215.283 Q 98.92 215.307 99.976 215.403 L 99.976 215.403 Q 101.08 215.547 101.632 215.835 Q 102.184 216.123 102.52 216.603 L 102.52 216.603 Q 103.24 217.323 103.48 218.019 Q 103.72 218.715 103.72 219.387 L 103.72 219.387 Q 103.528 220.443 102.304 221.955 Q 101.08 223.467 99.112 224.427 L 99.112 224.427 Q 98.056 224.763 96.808 224.715 Q 95.56 224.667 94.744 224.091 L 94.744 224.091 Q 93.832 223.707 93.544 224.211 Q 93.256 224.715 93.016 226.635 L 93.016 226.635 Q 92.824 228.459 93.304 229.299 Q 93.784 230.139 94.6 230.283 L 94.6 230.283 Q 95.56 230.475 96.112 230.547 Q 96.664 230.619 97.48 230.139 L 97.48 230.139 Q 98.248 229.659 98.44 229.587 Q 98.632 229.515 98.752 229.395 Q 98.872 229.275 99.352 228.795 L 99.352 228.795 Q 99.688 228.459 99.88 228.291 Q 100.072 228.123 100.312 228.123 L 100.312 228.123 Q 100.552 228.123 100.744 228.339 Q 100.936 228.555 101.128 228.651 L 101.128 228.651 Q 101.608 228.651 101.344 229.227 Q 101.08 229.803 100.312 230.595 Q 99.544 231.387 98.488 232.059 Z M 98.44 221.883 L 98.44 221.883 Q 98.968 221.643 99.544 221.187 Q 100.12 220.731 100.528 220.179 Q 100.936 219.627 100.936 219.243 L 100.936 219.243 Q 100.936 218.571 100.312 218.115 Q 99.688 217.659 98.44 217.995 L 98.44 217.995 Q 97.912 218.139 97.24 218.691 Q 96.568 219.243 95.968 219.915 Q 95.368 220.587 95.008 221.115 Q 94.648 221.643 94.744 221.739 L 94.744 221.739 Q 94.888 221.979 95.56 222.099 Q 96.232 222.219 97.072 222.171 Q 97.912 222.123 98.44 221.883 Z M 107.56 233.739 L 107.56 233.739 Q 106.648 233.979 106.096 233.355 Q 105.544 232.731 105.448 231.435 Q 105.352 230.139 105.736 228.363 L 105.736 228.363 Q 105.976 227.787 106.12 227.235 Q 106.264 226.683 106.264 226.347 L 106.264 226.347 Q 106.36 225.867 106.648 224.931 Q 106.936 223.995 107.272 222.987 Q 107.608 221.979 107.92 221.187 Q 108.232 220.395 108.328 220.203 L 108.328 220.203 Q 108.52 220.203 108.664 219.867 Q 108.808 219.531 108.808 219.195 L 108.808 219.195 Q 108.808 218.811 108.976 218.331 Q 109.144 217.851 109.336 217.659 L 109.336 217.659 Q 109.336 217.419 109.456 217.107 Q 109.576 216.795 109.576 216.603 L 109.576 216.603 Q 109.576 216.411 109.696 216.219 Q 109.816 216.027 109.816 215.835 L 109.816 215.835 Q 110.152 215.211 110.704 213.843 Q 111.256 212.475 111.904 210.795 Q 112.552 209.115 113.128 207.483 Q 113.704 205.851 114.064 204.723 Q 114.424 203.595 114.424 203.355 L 114.424 203.355 Q 114.424 202.971 114.616 202.779 Q 114.808 202.587 115.192 202.587 L 115.192 202.587 Q 115.336 202.443 115.552 202.395 Q 115.768 202.347 115.96 202.347 L 115.96 202.347 Q 115.96 202.347 116.152 202.539 Q 116.344 202.731 116.728 203.115 L 116.728 203.115 Q 117.112 203.451 117.184 203.883 Q 117.256 204.315 117.256 204.891 L 117.256 204.891 Q 117.256 205.515 117.112 205.995 Q 116.968 206.475 116.536 207.387 Q 116.104 208.299 115.192 210.219 L 115.192 210.219 Q 114.808 211.179 114.376 212.019 Q 113.944 212.859 113.944 213.051 L 113.944 213.051 Q 113.944 213.243 113.776 213.627 Q 113.608 214.011 113.416 214.587 L 113.416 214.587 Q 113.224 214.971 112.888 215.715 Q 112.552 216.459 112.192 217.299 Q 111.832 218.139 111.592 218.739 Q 111.352 219.339 111.352 219.435 L 111.352 219.435 Q 111.352 219.627 111.328 219.819 Q 111.304 220.011 111.112 220.203 L 111.112 220.203 Q 110.92 220.203 110.896 220.467 Q 110.872 220.731 110.872 220.731 L 110.872 220.731 Q 110.872 221.211 110.104 223.275 L 110.104 223.275 Q 109.336 225.915 108.688 228.123 Q 108.04 230.331 108.04 231.675 L 108.04 231.675 Q 108.04 232.827 107.992 233.187 Q 107.944 233.547 107.56 233.739 Z M 119.464 233.211 L 119.464 233.211 Q 118.072 233.451 116.92 233.043 Q 115.768 232.635 115.072 231.651 Q 114.376 230.667 114.376 229.131 L 114.376 229.131 Q 114.232 227.691 114.712 225.795 Q 115.192 223.899 116.128 221.979 Q 117.064 220.059 118.168 218.667 L 118.168 218.667 Q 119.128 217.515 120.088 216.555 Q 121.048 215.595 121.816 215.259 L 121.816 215.259 Q 122.488 214.971 123.088 214.899 Q 123.688 214.827 124.072 214.827 L 124.072 214.827 Q 124.84 215.019 125.728 215.523 Q 126.616 216.027 126.616 216.603 L 126.616 216.603 Q 126.616 216.603 126.736 216.723 Q 126.856 216.843 126.856 216.843 L 126.856 216.843 Q 127.144 216.843 127.36 217.467 Q 127.576 218.091 127.624 218.883 Q 127.672 219.675 127.384 220.203 L 127.384 220.203 Q 127.192 221.115 126.712 221.787 Q 126.232 222.459 125.848 222.459 L 125.848 222.459 Q 125.656 222.459 125.488 222.483 Q 125.32 222.507 125.32 222.747 L 125.32 222.747 Q 125.32 222.987 125.056 222.939 Q 124.792 222.891 124.504 222.627 Q 124.216 222.363 124.072 221.979 L 124.072 221.979 Q 124.072 221.739 124.264 221.163 Q 124.456 220.587 124.648 219.675 L 124.648 219.675 Q 124.936 218.331 124.6 217.923 Q 124.264 217.515 123.304 217.899 L 123.304 217.899 Q 122.104 218.571 121.024 219.771 Q 119.944 220.971 119.032 222.867 Q 118.12 224.763 117.4 227.595 L 117.4 227.595 Q 117.112 228.699 117.184 229.515 Q 117.256 230.331 117.4 230.379 L 117.4 230.379 Q 118.072 230.571 119.224 230.451 Q 120.376 230.331 120.904 230.043 L 120.904 230.043 Q 121.672 229.659 122.632 229.011 Q 123.592 228.363 124.312 227.835 L 124.312 227.835 Q 124.552 227.691 124.888 227.355 Q 125.224 227.019 125.608 226.827 L 125.608 226.827 Q 125.992 226.251 126.28 226.155 Q 126.568 226.059 127.144 226.059 L 127.144 226.059 Q 127.528 226.155 127.864 226.347 Q 128.2 226.539 128.32 226.731 Q 128.44 226.923 128.152 227.067 L 128.152 227.067 Q 127.96 227.067 127.936 227.187 Q 127.912 227.307 127.912 227.307 L 127.912 227.307 Q 128.008 227.499 127.504 228.099 Q 127 228.699 126.232 229.419 Q 125.464 230.139 124.768 230.643 Q 124.072 231.147 123.784 231.147 L 123.784 231.147 Q 123.304 231.147 123.304 231.435 L 123.304 231.435 Q 123.304 231.531 122.608 231.915 Q 121.912 232.299 121.024 232.683 Q 120.136 233.067 119.464 233.211 Z M 134.584 233.019 L 134.584 233.019 Q 133.96 233.019 133.6 232.779 Q 133.24 232.539 132.712 232.107 L 132.712 232.107 Q 131.8 231.147 131.416 230.259 Q 131.032 229.371 131.176 228.555 L 131.176 228.555 Q 131.32 228.171 131.296 227.811 Q 131.272 227.451 131.272 227.451 L 131.272 227.451 Q 131.032 227.211 131.128 227.139 Q 131.224 227.067 131.32 226.875 L 131.32 226.875 Q 131.608 226.875 131.512 226.347 L 131.512 226.347 Q 131.416 225.963 131.896 224.667 Q 132.376 223.371 133.096 222.219 L 133.096 222.219 Q 133.384 221.739 133.96 220.947 Q 134.536 220.155 135.232 219.363 Q 135.928 218.571 136.504 218.091 L 136.504 218.091 Q 137.704 217.083 138.616 216.603 Q 139.528 216.123 140.584 215.883 L 140.584 215.883 Q 141.64 215.643 142.048 215.643 Q 142.456 215.643 143.176 216.411 L 143.176 216.411 Q 144.28 216.891 144.784 217.563 Q 145.288 218.235 145.432 219.531 L 145.432 219.531 Q 145.576 220.971 145.216 222.819 Q 144.856 224.667 142.936 227.403 L 142.936 227.403 Q 141.736 229.131 140.728 229.971 Q 139.72 230.811 138.328 231.627 L 138.328 231.627 Q 137.32 232.299 136.504 232.611 Q 135.688 232.923 134.584 233.019 Z M 139.192 227.931 L 139.192 227.931 Q 140.344 226.635 141.04 225.483 Q 141.736 224.331 142.36 222.555 L 142.36 222.555 Q 142.552 222.027 142.6 221.235 Q 142.648 220.443 142.576 219.747 Q 142.504 219.051 142.216 218.955 L 142.216 218.955 Q 141.64 218.619 140.824 218.739 Q 140.008 218.859 139.048 219.675 L 139.048 219.675 Q 137.56 220.923 136.456 222.771 Q 135.352 224.619 134.296 226.971 L 134.296 226.971 Q 133.576 228.699 133.984 229.731 Q 134.392 230.763 135.76 230.451 Q 137.128 230.139 139.192 227.931 Z M 169.864 231.723 L 169.864 231.723 Q 169.624 231.627 169.144 231.243 Q 168.664 230.859 168.328 229.923 Q 167.992 228.987 167.992 227.307 L 167.992 227.307 Q 168.04 225.867 168.064 225.051 Q 168.088 224.235 167.704 224.235 L 167.704 224.235 Q 167.32 224.235 166.24 224.979 Q 165.16 225.723 163.768 226.971 Q 162.376 228.219 160.936 229.755 L 160.936 229.755 Q 160.456 230.283 160 230.739 Q 159.544 231.195 159.112 231.315 Q 158.68 231.435 158.104 231.003 L 158.104 231.003 L 157.576 230.571 Q 157.336 230.331 157.288 230.067 Q 157.24 229.803 157.336 229.467 L 157.336 229.467 L 158.44 226.299 Q 159.208 224.571 159.496 223.779 Q 159.784 222.987 159.784 222.771 Q 159.784 222.555 159.64 222.603 L 159.64 222.603 Q 159.256 222.651 158.488 223.059 Q 157.72 223.467 157.48 223.851 L 157.48 223.851 Q 157.288 223.851 156.904 224.283 Q 156.52 224.715 155.944 225.099 L 155.944 225.099 Q 155.608 225.675 154.624 226.587 Q 153.64 227.499 152.68 228.459 L 152.68 228.459 Q 152.056 228.987 151.456 229.755 Q 150.856 230.523 150.448 231.099 Q 150.04 231.675 149.896 231.675 L 149.896 231.675 Q 149.272 231.675 148.768 231.339 Q 148.264 231.003 148.024 230.235 L 148.024 230.235 Q 147.64 229.419 148.024 227.955 Q 148.408 226.491 148.888 224.139 L 148.888 224.139 Q 149.08 223.419 149.128 223.083 Q 149.176 222.747 149.296 222.387 Q 149.416 222.027 149.728 221.259 Q 150.04 220.491 150.712 218.955 L 150.712 218.955 Q 151.048 218.043 151.12 217.587 Q 151.192 217.131 151.192 216.939 L 151.192 216.939 Q 151.192 216.459 151.456 216.123 Q 151.72 215.787 152.104 215.643 Q 152.488 215.499 152.824 215.595 L 152.824 215.595 Q 153.352 215.691 153.76 216.123 Q 154.168 216.555 154.216 217.323 L 154.216 217.323 Q 154.264 217.899 154.12 218.355 Q 153.976 218.811 153.832 219.195 L 153.832 219.195 L 153.304 220.491 Q 153.064 221.019 152.68 222.027 Q 152.296 223.035 152.008 223.875 Q 151.72 224.715 151.72 224.859 L 151.72 224.859 Q 151.768 225.003 152.056 224.787 Q 152.344 224.571 152.8 224.163 Q 153.256 223.755 153.736 223.371 L 153.736 223.371 Q 154.744 222.411 156.016 221.523 Q 157.288 220.635 158.44 220.011 Q 159.592 219.387 160.216 219.195 L 160.216 219.195 Q 161.032 219.195 161.344 219.483 Q 161.656 219.771 162.424 220.539 L 162.424 220.539 Q 162.76 220.875 162.808 221.403 Q 162.856 221.931 162.76 222.411 L 162.76 222.411 Q 162.712 222.603 162.472 223.347 Q 162.232 224.091 162.016 224.763 Q 161.8 225.435 161.8 225.435 L 161.8 225.435 Q 161.8 225.435 162.352 224.955 Q 162.904 224.475 163.576 223.923 Q 164.248 223.371 164.584 223.083 L 164.584 223.083 Q 166.456 221.643 167.848 221.259 Q 169.24 220.875 170.104 222.267 L 170.104 222.267 Q 170.68 222.795 170.704 223.419 Q 170.728 224.043 170.728 225.579 L 170.728 225.579 Q 170.776 226.203 170.824 227.067 Q 170.872 227.931 170.944 228.627 Q 171.016 229.323 171.112 229.467 L 171.112 229.467 Q 171.256 229.659 171.664 229.779 Q 172.072 229.899 172.744 229.995 L 172.744 229.995 Q 173.464 230.091 173.608 230.619 Q 173.752 231.147 172.984 231.627 L 172.984 231.627 Q 172.264 232.059 171.4 232.011 Q 170.536 231.963 169.864 231.723 Z M 183.544 232.059 L 183.544 232.059 Q 182.536 232.923 181.216 233.067 Q 179.896 233.211 178.648 232.659 Q 177.4 232.107 176.584 230.955 L 176.584 230.955 Q 175.768 229.899 175.528 228.531 Q 175.288 227.163 175.48 224.955 L 175.48 224.955 Q 175.624 223.083 176.68 221.187 Q 177.736 219.291 179.248 217.803 Q 180.76 216.315 182.248 215.739 L 182.248 215.739 Q 182.968 215.259 183.472 215.283 Q 183.976 215.307 185.032 215.403 L 185.032 215.403 Q 186.136 215.547 186.688 215.835 Q 187.24 216.123 187.576 216.603 L 187.576 216.603 Q 188.296 217.323 188.536 218.019 Q 188.776 218.715 188.776 219.387 L 188.776 219.387 Q 188.584 220.443 187.36 221.955 Q 186.136 223.467 184.168 224.427 L 184.168 224.427 Q 183.112 224.763 181.864 224.715 Q 180.616 224.667 179.8 224.091 L 179.8 224.091 Q 178.888 223.707 178.6 224.211 Q 178.312 224.715 178.072 226.635 L 178.072 226.635 Q 177.88 228.459 178.36 229.299 Q 178.84 230.139 179.656 230.283 L 179.656 230.283 Q 180.616 230.475 181.168 230.547 Q 181.72 230.619 182.536 230.139 L 182.536 230.139 Q 183.304 229.659 183.496 229.587 Q 183.688 229.515 183.808 229.395 Q 183.928 229.275 184.408 228.795 L 184.408 228.795 Q 184.744 228.459 184.936 228.291 Q 185.128 228.123 185.368 228.123 L 185.368 228.123 Q 185.608 228.123 185.8 228.339 Q 185.992 228.555 186.184 228.651 L 186.184 228.651 Q 186.664 228.651 186.4 229.227 Q 186.136 229.803 185.368 230.595 Q 184.6 231.387 183.544 232.059 Z M 183.496 221.883 L 183.496 221.883 Q 184.024 221.643 184.6 221.187 Q 185.176 220.731 185.584 220.179 Q 185.992 219.627 185.992 219.243 L 185.992 219.243 Q 185.992 218.571 185.368 218.115 Q 184.744 217.659 183.496 217.995 L 183.496 217.995 Q 182.968 218.139 182.296 218.691 Q 181.624 219.243 181.024 219.915 Q 180.424 220.587 180.064 221.115 Q 179.704 221.643 179.8 221.739 L 179.8 221.739 Q 179.944 221.979 180.616 222.099 Q 181.288 222.219 182.128 222.171 Q 182.968 222.123 183.496 221.883 Z M 206.104 233.403 L 206.104 233.403 Q 205.576 233.307 205.024 232.851 Q 204.472 232.395 204.064 231.795 Q 203.656 231.195 203.512 230.715 L 203.512 230.715 Q 203.512 230.619 203.392 230.475 Q 203.272 230.331 203.272 230.331 L 203.272 230.331 Q 203.08 230.187 203.056 229.059 Q 203.032 227.931 203.176 226.539 Q 203.32 225.147 203.512 224.331 L 203.512 224.331 Q 203.752 223.563 204.232 222.243 Q 204.712 220.923 205.048 219.867 L 205.048 219.867 L 206.344 217.083 L 204.424 216.555 Q 204.088 216.459 203.872 216.171 Q 203.656 215.883 203.656 215.691 L 203.656 215.691 Q 203.656 215.307 204.088 214.755 Q 204.52 214.203 204.712 214.203 L 204.712 214.203 Q 204.952 214.251 205.6 214.251 Q 206.248 214.251 206.872 214.203 Q 207.496 214.155 207.64 214.107 L 207.64 214.107 Q 207.832 214.011 208.024 213.843 Q 208.216 213.675 208.312 213.339 L 208.312 213.339 Q 208.552 212.811 208.744 212.355 Q 208.936 211.899 209.272 211.323 L 209.272 211.323 Q 209.608 210.699 209.824 210.267 Q 210.04 209.835 210.52 209.067 L 210.52 209.067 Q 210.76 208.731 211.048 208.251 Q 211.336 207.771 211.768 207.435 L 211.768 207.435 Q 212.2 207.051 212.656 207.075 Q 213.112 207.099 213.832 207.723 L 213.832 207.723 Q 214.216 208.203 214.264 208.443 Q 214.312 208.683 213.88 209.355 L 213.88 209.355 Q 213.496 210.171 212.992 210.987 Q 212.488 211.803 212.056 212.619 L 212.056 212.619 Q 211.288 213.675 211.768 213.819 Q 212.248 213.963 214.456 213.627 L 214.456 213.627 Q 215.848 213.387 216.472 213.747 Q 217.096 214.107 217.192 214.923 L 217.192 214.923 Q 217.336 216.075 216.952 216.315 Q 216.568 216.555 214.744 216.555 L 214.744 216.555 Q 213.592 216.747 212.776 216.771 Q 211.96 216.795 211.576 216.795 L 211.576 216.795 Q 210.952 216.843 210.76 216.843 Q 210.568 216.843 210.184 216.939 L 210.184 216.939 Q 209.8 217.035 209.632 217.251 Q 209.464 217.467 209.272 217.851 L 209.272 217.851 Q 209.08 218.043 208.696 218.859 Q 208.312 219.675 207.736 220.635 L 207.736 220.635 Q 207.064 222.651 206.584 224.643 Q 206.104 226.635 205.816 228.507 L 205.816 228.507 Q 205.624 229.707 205.864 230.163 Q 206.104 230.619 207.112 230.715 L 207.112 230.715 Q 207.64 230.763 208.816 230.691 Q 209.992 230.619 210.664 230.427 L 210.664 230.427 Q 211.192 230.187 211.768 229.923 Q 212.344 229.659 212.824 229.371 L 212.824 229.371 Q 213.256 229.131 213.688 228.867 Q 214.12 228.603 214.12 228.603 L 214.12 228.603 Q 214.36 228.219 214.648 228.363 Q 214.936 228.507 215.128 229.083 L 215.128 229.083 Q 215.128 229.659 214.888 230.283 Q 214.648 230.907 213.112 231.771 L 213.112 231.771 Q 210.952 233.115 209.152 233.379 Q 207.352 233.643 206.104 233.403 Z M 221.512 233.019 L 221.512 233.019 Q 220.888 233.019 220.528 232.779 Q 220.168 232.539 219.64 232.107 L 219.64 232.107 Q 218.728 231.147 218.344 230.259 Q 217.96 229.371 218.104 228.555 L 218.104 228.555 Q 218.248 228.171 218.224 227.811 Q 218.2 227.451 218.2 227.451 L 218.2 227.451 Q 217.96 227.211 218.056 227.139 Q 218.152 227.067 218.248 226.875 L 218.248 226.875 Q 218.536 226.875 218.44 226.347 L 218.44 226.347 Q 218.344 225.963 218.824 224.667 Q 219.304 223.371 220.024 222.219 L 220.024 222.219 Q 220.312 221.739 220.888 220.947 Q 221.464 220.155 222.16 219.363 Q 222.856 218.571 223.432 218.091 L 223.432 218.091 Q 224.632 217.083 225.544 216.603 Q 226.456 216.123 227.512 215.883 L 227.512 215.883 Q 228.568 215.643 228.976 215.643 Q 229.384 215.643 230.104 216.411 L 230.104 216.411 Q 231.208 216.891 231.712 217.563 Q 232.216 218.235 232.36 219.531 L 232.36 219.531 Q 232.504 220.971 232.144 222.819 Q 231.784 224.667 229.864 227.403 L 229.864 227.403 Q 228.664 229.131 227.656 229.971 Q 226.648 230.811 225.256 231.627 L 225.256 231.627 Q 224.248 232.299 223.432 232.611 Q 222.616 232.923 221.512 233.019 Z M 226.12 227.931 L 226.12 227.931 Q 227.272 226.635 227.968 225.483 Q 228.664 224.331 229.288 222.555 L 229.288 222.555 Q 229.48 222.027 229.528 221.235 Q 229.576 220.443 229.504 219.747 Q 229.432 219.051 229.144 218.955 L 229.144 218.955 Q 228.568 218.619 227.752 218.739 Q 226.936 218.859 225.976 219.675 L 225.976 219.675 Q 224.488 220.923 223.384 222.771 Q 222.28 224.619 221.224 226.971 L 221.224 226.971 Q 220.504 228.699 220.912 229.731 Q 221.32 230.763 222.688 230.451 Q 224.056 230.139 226.12 227.931 Z M 273.688 236.043 L 273.688 236.043 Q 273.64 236.331 273.136 236.211 Q 272.632 236.091 272.248 235.515 L 272.248 235.515 Q 271.864 234.603 271.864 233.835 Q 271.864 233.067 271.912 231.531 L 271.912 231.531 Q 272.2 229.851 272.704 227.139 Q 273.208 224.427 273.904 221.043 Q 274.6 217.659 275.416 213.963 L 275.416 213.963 Q 275.992 212.043 276.352 210.435 Q 276.712 208.827 276.904 207.819 Q 277.096 206.811 277.096 206.811 L 277.096 206.811 Q 277.096 206.667 276.832 206.931 Q 276.568 207.195 276.328 207.531 Q 276.088 207.867 276.136 208.059 L 276.136 208.059 Q 276.136 208.059 275.8 208.539 Q 275.464 209.019 274.936 209.835 L 274.936 209.835 Q 274.456 210.315 273.784 211.755 Q 273.112 213.195 272.296 214.443 L 272.296 214.443 Q 271.528 215.883 270.664 217.539 Q 269.8 219.195 269.128 220.299 L 269.128 220.299 Q 268.696 220.923 268.264 221.739 Q 267.832 222.555 267.736 222.795 L 267.736 222.795 Q 267.544 223.323 267.064 224.067 Q 266.584 224.811 266.008 225.531 L 266.008 225.531 Q 265.72 225.963 265.432 226.419 Q 265.144 226.875 264.976 227.187 Q 264.808 227.499 264.808 227.499 L 264.808 227.499 Q 264.808 227.643 264.352 228.363 Q 263.896 229.083 263.248 229.947 Q 262.6 230.811 262.024 231.435 L 262.024 231.435 Q 260.344 233.211 259.336 233.523 Q 258.328 233.835 257.08 232.683 L 257.08 232.683 Q 256.456 231.915 256.168 230.931 Q 255.88 229.947 255.928 228.483 Q 255.976 227.019 256.264 224.811 L 256.264 224.811 Q 256.6 223.131 256.888 221.427 Q 257.176 219.723 257.44 218.211 Q 257.704 216.699 257.92 215.643 Q 258.136 214.587 258.28 214.251 L 258.28 214.251 Q 258.376 213.291 258.232 213.195 Q 258.088 213.099 257.656 213.771 L 257.656 213.771 Q 257.464 214.107 256.648 215.427 Q 255.832 216.747 254.752 218.667 Q 253.672 220.587 252.616 222.843 L 252.616 222.843 Q 250.648 226.491 249.376 228.867 Q 248.104 231.243 247.36 232.635 Q 246.616 234.027 246.28 234.699 Q 245.944 235.371 245.8 235.611 Q 245.656 235.851 245.56 235.947 L 245.56 235.947 Q 245.128 235.947 244.672 235.587 Q 244.216 235.227 243.736 234.747 L 243.736 234.747 Q 243.592 234.411 243.616 234.075 Q 243.64 233.739 243.928 233.091 Q 244.216 232.443 244.792 231.099 L 244.792 231.099 Q 245.416 229.851 245.944 228.915 Q 246.472 227.979 246.76 227.787 L 246.76 227.787 Q 247 227.403 247.192 227.019 Q 247.384 226.635 247.432 226.107 L 247.432 226.107 Q 247.672 225.819 248.176 224.931 Q 248.68 224.043 249.208 222.987 L 249.208 222.987 Q 249.592 222.363 250.192 221.355 Q 250.792 220.347 251.464 219.123 Q 252.136 217.899 252.664 216.795 L 252.664 216.795 Q 254.872 213.003 256.408 210.387 Q 257.944 207.771 258.712 207.051 L 258.712 207.051 Q 258.952 206.811 259.216 206.379 Q 259.48 205.947 259.48 205.611 L 259.48 205.611 Q 259.48 204.603 259.888 203.763 Q 260.296 202.923 260.728 203.019 L 260.728 203.019 Q 261.208 203.019 261.592 203.115 Q 261.976 203.211 262.408 203.739 L 262.408 203.739 Q 262.792 204.315 263.08 204.891 Q 263.368 205.467 263.032 207.195 L 263.032 207.195 Q 263.032 207.867 262.888 208.707 Q 262.744 209.547 262.624 210.243 Q 262.504 210.939 262.456 211.323 L 262.456 211.323 Q 261.832 213.195 261.304 215.523 Q 260.776 217.851 260.344 220.227 Q 259.912 222.603 259.624 224.643 Q 259.336 226.683 259.264 228.003 Q 259.192 229.323 259.336 229.515 L 259.336 229.515 Q 259.672 229.707 259.912 229.563 Q 260.152 229.419 260.728 228.315 L 260.728 228.315 Q 261.064 227.739 261.664 226.899 Q 262.264 226.059 262.84 225.339 L 262.84 225.339 Q 263.224 224.667 264.04 223.323 Q 264.856 221.979 266.128 219.867 Q 267.4 217.755 269.2 214.707 Q 271 211.659 273.304 207.627 L 273.304 207.627 Q 274.408 205.947 275.392 204.339 Q 276.376 202.731 277 202.251 L 277 202.251 Q 277.672 201.627 278.392 201.939 Q 279.112 202.251 279.664 203.211 Q 280.216 204.171 280.264 205.611 L 280.264 205.611 Q 280.312 206.283 280.096 207.771 Q 279.88 209.259 279.448 211.155 Q 279.016 213.051 278.344 215.067 L 278.344 215.067 Q 278.2 215.883 277.888 217.107 Q 277.576 218.331 277.192 219.627 Q 276.808 220.923 276.424 222.075 L 276.424 222.075 Q 276.184 223.659 275.872 225.195 Q 275.56 226.731 275.656 227.259 L 275.656 227.259 Q 275.224 228.027 275.08 229.467 Q 274.936 230.907 274.936 232.443 L 274.936 232.443 Q 274.744 234.315 274.648 235.083 Q 274.552 235.851 274.312 235.803 L 274.312 235.803 Q 273.688 235.611 273.688 236.043 Z M 279.832 243.291 L 279.832 243.291 Q 278.68 243.627 277.312 243.411 Q 275.944 243.195 274.912 242.571 Q 273.88 241.947 273.736 241.179 L 273.736 241.179 Q 273.688 240.891 273.904 240.555 Q 274.12 240.219 274.432 240.099 Q 274.744 239.979 274.984 240.267 L 274.984 240.267 Q 275.368 240.507 276.376 240.867 Q 277.384 241.227 278.632 240.987 L 278.632 240.987 Q 279.736 240.747 280.816 239.691 Q 281.896 238.635 282.568 237.723 L 282.568 237.723 Q 282.952 237.147 283.864 235.659 Q 284.776 234.171 285.76 232.371 Q 286.744 230.571 287.416 229.035 L 287.416 229.035 Q 287.56 228.651 287.752 228.123 Q 287.944 227.595 288.232 227.259 L 288.232 227.259 Q 288.52 226.683 288.736 226.179 Q 288.952 225.675 289 225.483 L 289 225.483 Q 289.048 225.243 289.432 224.523 Q 289.816 223.803 290.152 223.083 L 290.152 223.083 Q 290.392 222.363 290.872 220.971 Q 291.352 219.579 291.832 218.715 L 291.832 218.715 Q 292.408 217.611 292.768 216.915 Q 293.128 216.219 293.56 216.075 L 293.56 216.075 L 293.56 216.075 L 293.56 216.075 Q 293.992 215.739 294.16 215.739 Q 294.328 215.739 294.856 216.027 L 294.856 216.027 Q 295.432 216.603 295.576 217.155 Q 295.72 217.707 295.456 218.499 Q 295.192 219.291 294.472 220.635 L 294.472 220.635 Q 294.088 221.787 293.632 222.723 Q 293.176 223.659 292.936 223.947 L 292.936 223.947 Q 292.696 224.523 292.384 225.219 Q 292.072 225.915 291.832 226.491 L 291.832 226.491 Q 290.968 228.411 290.344 229.611 Q 289.72 230.811 289.24 231.819 Q 288.76 232.827 288.232 234.171 L 288.232 234.171 Q 287.128 235.947 286.096 237.555 Q 285.064 239.163 283.912 240.555 L 283.912 240.555 Q 283.432 240.987 282.712 241.563 Q 281.992 242.139 281.248 242.619 Q 280.504 243.099 279.832 243.291 Z M 286.312 231.771 L 286.312 231.771 Q 285.592 231.675 284.896 230.907 Q 284.2 230.139 283.816 229.275 Q 283.432 228.411 283.528 228.027 L 283.528 228.027 Q 283.528 227.787 283.528 227.643 Q 283.528 227.499 283.528 227.499 L 283.528 227.499 Q 283.24 227.499 283.024 226.779 Q 282.808 226.059 282.712 224.907 Q 282.616 223.755 282.592 222.459 Q 282.568 221.163 282.664 220.011 L 282.664 220.011 Q 282.856 219.195 282.856 218.211 Q 282.856 217.227 282.904 216.651 L 282.904 216.651 Q 282.856 215.883 283.048 215.619 Q 283.24 215.355 283.432 215.211 L 283.432 215.211 L 283.432 215.211 L 283.432 215.211 Q 284.776 214.635 285.232 215.907 Q 285.688 217.179 285.448 220.635 L 285.448 220.635 Q 285.352 222.555 285.448 224.475 Q 285.544 226.395 286 227.835 Q 286.456 229.275 287.272 229.803 L 287.272 229.803 Q 287.608 229.995 287.608 230.331 Q 287.608 230.667 287.416 231.027 Q 287.224 231.387 286.912 231.603 Q 286.6 231.819 286.312 231.771 Z M 309.304 236.043 L 309.304 236.043 Q 308.728 236.043 308.344 235.419 L 308.344 235.419 Q 308.056 235.131 307.984 234.627 Q 307.912 234.123 308.296 232.803 Q 308.68 231.483 309.592 228.747 L 309.592 228.747 Q 310.072 226.923 310.36 226.083 Q 310.648 225.243 310.648 224.859 L 310.648 224.859 Q 310.648 224.331 310.768 223.971 Q 310.888 223.611 310.888 223.275 L 310.888 223.275 Q 311.176 223.275 311.464 222.747 Q 311.752 222.219 311.944 221.307 L 311.944 221.307 Q 312.136 220.491 312.304 219.987 Q 312.472 219.483 312.472 219.291 L 312.472 219.291 Q 312.712 218.907 312.976 218.091 Q 313.24 217.275 313.816 216.123 L 313.816 216.123 Q 314.2 214.683 314.68 213.123 Q 315.16 211.563 315.664 210.195 Q 316.168 208.827 316.504 208.059 L 316.504 208.059 Q 317.032 206.571 317.32 205.971 Q 317.608 205.371 317.32 205.179 L 317.32 205.179 Q 316.984 204.939 317.176 204.363 Q 317.368 203.787 318.232 203.067 L 318.232 203.067 Q 318.76 202.443 319.144 202.179 Q 319.528 201.915 320.128 201.915 Q 320.728 201.915 321.88 202.011 L 321.88 202.011 Q 322.744 202.059 323.728 202.059 Q 324.712 202.059 324.952 202.059 L 324.952 202.059 Q 325.384 202.251 326.008 202.467 Q 326.632 202.683 327.136 202.875 Q 327.64 203.067 327.64 203.211 L 327.64 203.211 Q 327.64 203.499 327.856 203.571 Q 328.072 203.643 328.312 203.691 L 328.312 203.691 Q 328.648 203.691 329.224 204.195 Q 329.8 204.699 330.424 205.443 Q 331.048 206.187 331.384 207.003 L 331.384 207.003 Q 331.768 207.819 331.984 208.539 Q 332.2 209.259 331.96 210.603 L 331.96 210.603 Q 331.912 211.323 331.744 212.043 Q 331.576 212.763 331.384 213.003 L 331.384 213.003 Q 331.096 213.195 330.856 213.483 Q 330.616 213.771 330.616 214.011 L 330.616 214.011 Q 330.616 214.203 330.28 214.755 Q 329.944 215.307 329.416 216.027 Q 328.888 216.747 328.264 217.467 Q 327.64 218.187 327.064 218.715 L 327.064 218.715 Q 326.44 219.483 325.6 220.155 Q 324.76 220.827 324.088 221.259 L 324.088 221.259 Q 322.84 221.835 321.328 222.411 Q 319.816 222.987 318.448 223.371 Q 317.08 223.755 316.168 223.707 L 316.168 223.707 Q 314.776 223.899 314.368 224.067 Q 313.96 224.235 313.768 224.907 L 313.768 224.907 Q 313.528 225.531 313.312 226.179 Q 313.096 226.827 313.096 227.067 L 313.096 227.067 Q 313 227.259 312.64 228.243 Q 312.28 229.227 311.872 230.523 Q 311.464 231.819 311.08 233.067 Q 310.696 234.315 310.504 235.131 L 310.504 235.131 Q 310.312 235.803 310.024 235.923 Q 309.736 236.043 309.304 236.043 Z M 315.256 221.163 L 315.256 221.163 Q 315.448 221.355 316.744 221.211 Q 318.04 221.067 319.528 220.491 L 319.528 220.491 Q 320.488 220.155 321.472 219.675 Q 322.456 219.195 323.368 218.619 L 323.368 218.619 Q 323.848 218.283 324.808 217.419 Q 325.768 216.555 326.728 215.355 L 326.728 215.355 Q 326.872 215.115 327.232 214.419 Q 327.592 213.723 327.88 213.099 L 327.88 213.099 Q 328.312 212.427 328.744 211.107 Q 329.176 209.787 328.936 208.923 L 328.936 208.923 Q 328.696 207.675 327.688 206.595 Q 326.68 205.515 325.288 205.131 L 325.288 205.131 Q 324.232 204.939 323.536 204.939 Q 322.84 204.939 322.024 205.083 L 322.024 205.083 Q 321.256 205.323 320.896 205.755 Q 320.536 206.187 319.96 207.579 L 319.96 207.579 Q 319.624 208.251 319 209.619 Q 318.376 210.987 317.944 212.187 L 317.944 212.187 Q 317.08 215.355 316.24 217.395 Q 315.4 219.435 315.208 219.963 L 315.208 219.963 Q 315.256 220.491 315.16 220.707 Q 315.064 220.923 315.256 221.163 Z M 332.968 233.019 L 332.968 233.019 Q 332.344 233.019 331.984 232.779 Q 331.624 232.539 331.096 232.107 L 331.096 232.107 Q 330.184 231.147 329.8 230.259 Q 329.416 229.371 329.56 228.555 L 329.56 228.555 Q 329.704 228.171 329.68 227.811 Q 329.656 227.451 329.656 227.451 L 329.656 227.451 Q 329.416 227.211 329.512 227.139 Q 329.608 227.067 329.704 226.875 L 329.704 226.875 Q 329.992 226.875 329.896 226.347 L 329.896 226.347 Q 329.8 225.963 330.28 224.667 Q 330.76 223.371 331.48 222.219 L 331.48 222.219 Q 331.768 221.739 332.344 220.947 Q 332.92 220.155 333.616 219.363 Q 334.312 218.571 334.888 218.091 L 334.888 218.091 Q 336.088 217.083 337 216.603 Q 337.912 216.123 338.968 215.883 L 338.968 215.883 Q 340.024 215.643 340.432 215.643 Q 340.84 215.643 341.56 216.411 L 341.56 216.411 Q 342.664 216.891 343.168 217.563 Q 343.672 218.235 343.816 219.531 L 343.816 219.531 Q 343.96 220.971 343.6 222.819 Q 343.24 224.667 341.32 227.403 L 341.32 227.403 Q 340.12 229.131 339.112 229.971 Q 338.104 230.811 336.712 231.627 L 336.712 231.627 Q 335.704 232.299 334.888 232.611 Q 334.072 232.923 332.968 233.019 Z M 337.576 227.931 L 337.576 227.931 Q 338.728 226.635 339.424 225.483 Q 340.12 224.331 340.744 222.555 L 340.744 222.555 Q 340.936 222.027 340.984 221.235 Q 341.032 220.443 340.96 219.747 Q 340.888 219.051 340.6 218.955 L 340.6 218.955 Q 340.024 218.619 339.208 218.739 Q 338.392 218.859 337.432 219.675 L 337.432 219.675 Q 335.944 220.923 334.84 222.771 Q 333.736 224.619 332.68 226.971 L 332.68 226.971 Q 331.96 228.699 332.368 229.731 Q 332.776 230.763 334.144 230.451 Q 335.512 230.139 337.576 227.931 Z M 347.512 232.059 L 347.512 232.059 Q 347.08 231.723 346.912 231.387 Q 346.744 231.051 346.888 230.091 L 346.888 230.091 Q 347.032 228.747 347.272 227.715 Q 347.512 226.683 347.848 225.339 L 347.848 225.339 Q 347.944 224.763 348.4 223.371 Q 348.856 221.979 349.528 220.347 Q 350.2 218.715 350.872 217.251 Q 351.544 215.787 352.024 215.067 L 352.024 215.067 Q 352.408 214.779 352.96 214.827 Q 353.512 214.875 353.896 215.259 L 353.896 215.259 Q 354.424 215.691 354.064 216.771 Q 353.704 217.851 352.6 220.155 L 352.6 220.155 Q 352.024 221.451 351.736 222.099 Q 351.448 222.747 351.496 222.867 Q 351.544 222.987 351.928 222.747 L 351.928 222.747 Q 352.216 222.219 352.984 221.523 Q 353.752 220.827 354.616 220.155 Q 355.48 219.483 356.248 218.955 Q 357.016 218.427 357.304 218.283 L 357.304 218.283 Q 357.688 218.043 358.192 217.875 Q 358.696 217.707 358.888 217.611 L 358.888 217.611 Q 359.992 217.083 361.144 217.227 Q 362.296 217.371 362.584 218.091 L 362.584 218.091 Q 362.632 218.475 362.896 218.667 Q 363.16 218.859 363.16 218.859 L 363.16 218.859 Q 363.352 218.859 363.376 219.003 Q 363.4 219.147 363.4 219.147 L 363.4 219.147 Q 363.4 219.483 362.896 219.555 Q 362.392 219.627 361.624 219.675 L 361.624 219.675 Q 361 219.723 360.52 219.915 Q 360.04 220.107 359.368 220.395 L 359.368 220.395 Q 357.544 221.451 355.888 222.459 Q 354.232 223.467 352.696 225.147 L 352.696 225.147 Q 352.36 225.531 352.024 226.059 Q 351.688 226.587 351.304 227.211 L 351.304 227.211 Q 351.064 227.451 350.824 228.267 Q 350.584 229.083 350.416 229.827 Q 350.248 230.571 350.248 230.715 L 350.248 230.715 Q 350.248 230.715 350.104 231.171 Q 349.96 231.627 349.624 232.059 L 349.624 232.059 Q 349.048 232.827 348.664 232.827 Q 348.28 232.827 347.512 232.059 Z M 367.672 233.403 L 367.672 233.403 Q 367.144 233.307 366.592 232.851 Q 366.04 232.395 365.632 231.795 Q 365.224 231.195 365.08 230.715 L 365.08 230.715 Q 365.08 230.619 364.96 230.475 Q 364.84 230.331 364.84 230.331 L 364.84 230.331 Q 364.648 230.187 364.624 229.059 Q 364.6 227.931 364.744 226.539 Q 364.888 225.147 365.08 224.331 L 365.08 224.331 Q 365.32 223.563 365.8 222.243 Q 366.28 220.923 366.616 219.867 L 366.616 219.867 L 367.912 217.083 L 365.992 216.555 Q 365.656 216.459 365.44 216.171 Q 365.224 215.883 365.224 215.691 L 365.224 215.691 Q 365.224 215.307 365.656 214.755 Q 366.088 214.203 366.28 214.203 L 366.28 214.203 Q 366.52 214.251 367.168 214.251 Q 367.816 214.251 368.44 214.203 Q 369.064 214.155 369.208 214.107 L 369.208 214.107 Q 369.4 214.011 369.592 213.843 Q 369.784 213.675 369.88 213.339 L 369.88 213.339 Q 370.12 212.811 370.312 212.355 Q 370.504 211.899 370.84 211.323 L 370.84 211.323 Q 371.176 210.699 371.392 210.267 Q 371.608 209.835 372.088 209.067 L 372.088 209.067 Q 372.328 208.731 372.616 208.251 Q 372.904 207.771 373.336 207.435 L 373.336 207.435 Q 373.768 207.051 374.224 207.075 Q 374.68 207.099 375.4 207.723 L 375.4 207.723 Q 375.784 208.203 375.832 208.443 Q 375.88 208.683 375.448 209.355 L 375.448 209.355 Q 375.064 210.171 374.56 210.987 Q 374.056 211.803 373.624 212.619 L 373.624 212.619 Q 372.856 213.675 373.336 213.819 Q 373.816 213.963 376.024 213.627 L 376.024 213.627 Q 377.416 213.387 378.04 213.747 Q 378.664 214.107 378.76 214.923 L 378.76 214.923 Q 378.904 216.075 378.52 216.315 Q 378.136 216.555 376.312 216.555 L 376.312 216.555 Q 375.16 216.747 374.344 216.771 Q 373.528 216.795 373.144 216.795 L 373.144 216.795 Q 372.52 216.843 372.328 216.843 Q 372.136 216.843 371.752 216.939 L 371.752 216.939 Q 371.368 217.035 371.2 217.251 Q 371.032 217.467 370.84 217.851 L 370.84 217.851 Q 370.648 218.043 370.264 218.859 Q 369.88 219.675 369.304 220.635 L 369.304 220.635 Q 368.632 222.651 368.152 224.643 Q 367.672 226.635 367.384 228.507 L 367.384 228.507 Q 367.192 229.707 367.432 230.163 Q 367.672 230.619 368.68 230.715 L 368.68 230.715 Q 369.208 230.763 370.384 230.691 Q 371.56 230.619 372.232 230.427 L 372.232 230.427 Q 372.76 230.187 373.336 229.923 Q 373.912 229.659 374.392 229.371 L 374.392 229.371 Q 374.824 229.131 375.256 228.867 Q 375.688 228.603 375.688 228.603 L 375.688 228.603 Q 375.928 228.219 376.216 228.363 Q 376.504 228.507 376.696 229.083 L 376.696 229.083 Q 376.696 229.659 376.456 230.283 Q 376.216 230.907 374.68 231.771 L 374.68 231.771 Q 372.52 233.115 370.72 233.379 Q 368.92 233.643 367.672 233.403 Z M 380.872 238.827 L 380.872 238.827 Q 380.584 239.019 380.224 238.731 Q 379.864 238.443 379.192 237.675 L 379.192 237.675 Q 378.856 237.291 378.76 236.859 Q 378.664 236.427 378.808 235.227 L 378.808 235.227 Q 379 234.699 379.024 234.219 Q 379.048 233.739 379.048 233.547 L 379.048 233.547 Q 379.048 233.259 379.216 232.203 Q 379.384 231.147 379.576 229.971 Q 379.768 228.795 379.912 228.171 L 379.912 228.171 Q 379.912 228.123 379.96 227.931 Q 380.008 227.739 380.056 227.595 L 380.056 227.595 Q 380.152 227.163 380.32 226.443 Q 380.488 225.723 380.632 224.667 L 380.632 224.667 Q 381.016 223.467 381.28 222.291 Q 381.544 221.115 381.544 220.683 L 381.544 220.683 Q 381.544 219.819 382.216 219.435 L 382.216 219.435 Q 382.264 219.195 382.504 218.691 Q 382.744 218.187 382.936 217.851 L 382.936 217.851 Q 383.896 215.115 384.52 213.507 Q 385.144 211.899 385.816 210.699 L 385.816 210.699 Q 386.104 209.883 386.464 209.019 Q 386.824 208.155 387.208 207.675 L 387.208 207.675 Q 387.448 207.051 388.312 206.067 Q 389.176 205.083 390.136 204.147 Q 391.096 203.211 391.672 202.731 L 391.672 202.731 Q 392.728 202.203 393.352 202.011 Q 393.976 201.819 394.984 201.819 L 394.984 201.819 Q 395.896 201.819 396.208 202.035 Q 396.52 202.251 397.144 202.827 L 397.144 202.827 Q 397.816 203.547 397.912 203.787 Q 398.008 204.027 398.008 204.699 L 398.008 204.699 Q 397.912 205.323 397.504 206.307 Q 397.096 207.291 396.64 208.083 Q 396.184 208.875 395.896 208.923 L 395.896 208.923 Q 395.32 209.115 395.056 208.803 Q 394.792 208.491 394.792 207.771 L 394.792 207.771 Q 394.792 207.435 394.624 207.123 Q 394.456 206.811 394.456 206.811 L 394.456 206.811 Q 394.456 206.667 394.528 206.307 Q 394.6 205.947 394.792 205.611 L 394.792 205.611 Q 395.032 205.131 394.912 204.891 Q 394.792 204.651 394.264 204.795 L 394.264 204.795 Q 394.12 204.891 393.496 205.371 Q 392.872 205.851 392.176 206.451 Q 391.48 207.051 390.952 207.579 Q 390.424 208.107 390.424 208.251 L 390.424 208.251 Q 390.424 208.251 390.232 208.659 Q 390.04 209.067 389.512 209.691 L 389.512 209.691 Q 389.176 210.171 388.912 210.627 Q 388.648 211.083 388.648 211.179 L 388.648 211.179 Q 388.648 211.371 388.624 211.587 Q 388.6 211.803 388.36 211.803 L 388.36 211.803 Q 388.36 211.803 388.216 212.235 Q 388.072 212.667 387.688 213.339 L 387.688 213.339 Q 387.496 213.819 387.208 214.323 Q 386.92 214.827 386.728 215.019 L 386.728 215.019 L 386.776 215.019 Q 386.776 215.019 386.56 215.619 Q 386.344 216.219 386.104 216.867 Q 385.864 217.515 385.864 217.611 L 385.864 217.611 Q 385.864 217.803 386.56 217.803 Q 387.256 217.803 388.216 217.635 Q 389.176 217.467 389.944 217.275 L 389.944 217.275 Q 390.616 217.083 390.856 217.083 Q 391.096 217.083 391.816 217.275 L 391.816 217.275 Q 392.2 217.515 392.464 217.971 Q 392.728 218.427 392.848 218.835 Q 392.968 219.243 392.824 219.435 L 392.824 219.435 Q 392.776 219.627 391.768 219.963 Q 390.76 220.299 389.752 220.491 L 389.752 220.491 Q 388.888 220.683 387.64 220.923 Q 386.392 221.163 385.456 221.355 Q 384.52 221.547 384.52 221.691 L 384.52 221.691 Q 384.328 221.691 384.184 221.907 Q 384.04 222.123 384.04 222.267 L 384.04 222.267 Q 384.04 222.939 383.848 223.275 L 383.848 223.275 Q 383.752 223.563 383.512 224.427 Q 383.272 225.291 383.008 226.347 Q 382.744 227.403 382.576 228.267 Q 382.408 229.131 382.408 229.419 L 382.408 229.419 Q 382.12 229.755 382.072 230.259 Q 382.024 230.763 382.024 231.147 L 382.024 231.147 Q 381.832 231.531 381.784 231.843 Q 381.736 232.155 381.736 232.347 L 381.736 232.347 Q 381.736 232.395 381.736 232.539 Q 381.736 232.683 381.688 232.827 L 381.688 232.827 Q 381.64 233.307 381.568 234.099 Q 381.496 234.891 381.496 235.659 L 381.496 235.659 L 381.352 237.051 Q 381.304 237.675 381.208 238.131 Q 381.112 238.587 380.872 238.827 Z M 397.048 233.019 L 397.048 233.019 Q 396.424 233.019 396.064 232.779 Q 395.704 232.539 395.176 232.107 L 395.176 232.107 Q 394.264 231.147 393.88 230.259 Q 393.496 229.371 393.64 228.555 L 393.64 228.555 Q 393.784 228.171 393.76 227.811 Q 393.736 227.451 393.736 227.451 L 393.736 227.451 Q 393.496 227.211 393.592 227.139 Q 393.688 227.067 393.784 226.875 L 393.784 226.875 Q 394.072 226.875 393.976 226.347 L 393.976 226.347 Q 393.88 225.963 394.36 224.667 Q 394.84 223.371 395.56 222.219 L 395.56 222.219 Q 395.848 221.739 396.424 220.947 Q 397 220.155 397.696 219.363 Q 398.392 218.571 398.968 218.091 L 398.968 218.091 Q 400.168 217.083 401.08 216.603 Q 401.992 216.123 403.048 215.883 L 403.048 215.883 Q 404.104 215.643 404.512 215.643 Q 404.92 215.643 405.64 216.411 L 405.64 216.411 Q 406.744 216.891 407.248 217.563 Q 407.752 218.235 407.896 219.531 L 407.896 219.531 Q 408.04 220.971 407.68 222.819 Q 407.32 224.667 405.4 227.403 L 405.4 227.403 Q 404.2 229.131 403.192 229.971 Q 402.184 230.811 400.792 231.627 L 400.792 231.627 Q 399.784 232.299 398.968 232.611 Q 398.152 232.923 397.048 233.019 Z M 401.656 227.931 L 401.656 227.931 Q 402.808 226.635 403.504 225.483 Q 404.2 224.331 404.824 222.555 L 404.824 222.555 Q 405.016 222.027 405.064 221.235 Q 405.112 220.443 405.04 219.747 Q 404.968 219.051 404.68 218.955 L 404.68 218.955 Q 404.104 218.619 403.288 218.739 Q 402.472 218.859 401.512 219.675 L 401.512 219.675 Q 400.024 220.923 398.92 222.771 Q 397.816 224.619 396.76 226.971 L 396.76 226.971 Q 396.04 228.699 396.448 229.731 Q 396.856 230.763 398.224 230.451 Q 399.592 230.139 401.656 227.931 Z M 412.12 233.739 L 412.12 233.739 Q 411.208 233.979 410.656 233.355 Q 410.104 232.731 410.008 231.435 Q 409.912 230.139 410.296 228.363 L 410.296 228.363 Q 410.536 227.787 410.68 227.235 Q 410.824 226.683 410.824 226.347 L 410.824 226.347 Q 410.92 225.867 411.208 224.931 Q 411.496 223.995 411.832 222.987 Q 412.168 221.979 412.48 221.187 Q 412.792 220.395 412.888 220.203 L 412.888 220.203 Q 413.08 220.203 413.224 219.867 Q 413.368 219.531 413.368 219.195 L 413.368 219.195 Q 413.368 218.811 413.536 218.331 Q 413.704 217.851 413.896 217.659 L 413.896 217.659 Q 413.896 217.419 414.016 217.107 Q 414.136 216.795 414.136 216.603 L 414.136 216.603 Q 414.136 216.411 414.256 216.219 Q 414.376 216.027 414.376 215.835 L 414.376 215.835 Q 414.712 215.211 415.264 213.843 Q 415.816 212.475 416.464 210.795 Q 417.112 209.115 417.688 207.483 Q 418.264 205.851 418.624 204.723 Q 418.984 203.595 418.984 203.355 L 418.984 203.355 Q 418.984 202.971 419.176 202.779 Q 419.368 202.587 419.752 202.587 L 419.752 202.587 Q 419.896 202.443 420.112 202.395 Q 420.328 202.347 420.52 202.347 L 420.52 202.347 Q 420.52 202.347 420.712 202.539 Q 420.904 202.731 421.288 203.115 L 421.288 203.115 Q 421.672 203.451 421.744 203.883 Q 421.816 204.315 421.816 204.891 L 421.816 204.891 Q 421.816 205.515 421.672 205.995 Q 421.528 206.475 421.096 207.387 Q 420.664 208.299 419.752 210.219 L 419.752 210.219 Q 419.368 211.179 418.936 212.019 Q 418.504 212.859 418.504 213.051 L 418.504 213.051 Q 418.504 213.243 418.336 213.627 Q 418.168 214.011 417.976 214.587 L 417.976 214.587 Q 417.784 214.971 417.448 215.715 Q 417.112 216.459 416.752 217.299 Q 416.392 218.139 416.152 218.739 Q 415.912 219.339 415.912 219.435 L 415.912 219.435 Q 415.912 219.627 415.888 219.819 Q 415.864 220.011 415.672 220.203 L 415.672 220.203 Q 415.48 220.203 415.456 220.467 Q 415.432 220.731 415.432 220.731 L 415.432 220.731 Q 415.432 221.211 414.664 223.275 L 414.664 223.275 Q 413.896 225.915 413.248 228.123 Q 412.6 230.331 412.6 231.675 L 412.6 231.675 Q 412.6 232.827 412.552 233.187 Q 412.504 233.547 412.12 233.739 Z M 419.32 232.203 L 419.32 232.203 Q 418.936 231.819 418.768 231.243 Q 418.6 230.667 418.648 230.091 Q 418.696 229.515 418.888 229.131 L 418.888 229.131 Q 418.888 228.747 419.008 228.531 Q 419.128 228.315 419.08 228.123 L 419.08 228.123 Q 419.032 227.931 419.176 227.451 Q 419.32 226.971 419.464 226.539 L 419.464 226.539 Q 419.8 225.771 420.184 224.691 Q 420.568 223.611 420.904 222.555 Q 421.24 221.499 421.48 220.731 Q 421.72 219.963 421.768 219.771 L 421.768 219.771 Q 421.768 219.195 422.536 219.147 L 422.536 219.147 Q 423.112 218.955 423.4 219.123 Q 423.688 219.291 424.168 220.059 L 424.168 220.059 Q 424.552 220.443 424.456 221.211 Q 424.36 221.979 423.832 223.131 L 423.832 223.131 Q 423.64 223.515 423.376 224.235 Q 423.112 224.955 423.016 225.531 L 423.016 225.531 Q 422.824 225.915 422.56 226.611 Q 422.296 227.307 422.104 227.931 L 422.104 227.931 Q 422.008 228.171 421.912 228.627 Q 421.816 229.083 421.672 229.587 Q 421.528 230.091 421.288 230.475 L 421.288 230.475 Q 420.856 232.443 420.496 232.779 Q 420.136 233.115 419.32 232.203 Z M 423.976 212.715 L 423.976 212.715 Q 423.736 212.475 423.544 212.019 Q 423.352 211.563 423.304 211.155 Q 423.256 210.747 423.4 210.747 L 423.4 210.747 Q 423.784 210.699 424.312 209.931 Q 424.84 209.163 424.744 208.587 L 424.744 208.587 Q 424.744 208.395 424.888 208.227 Q 425.032 208.059 425.224 208.011 L 425.224 208.011 Q 425.8 207.627 426.352 207.891 Q 426.904 208.155 427.384 208.923 L 427.384 208.923 Q 427.816 209.835 427.624 210.435 Q 427.432 211.035 426.568 212.091 L 426.568 212.091 Q 425.848 213.051 425.248 213.147 Q 424.648 213.243 423.976 212.715 Z M 431.08 233.019 L 431.08 233.019 Q 430.456 233.019 430.096 232.779 Q 429.736 232.539 429.208 232.107 L 429.208 232.107 Q 428.296 231.147 427.912 230.259 Q 427.528 229.371 427.672 228.555 L 427.672 228.555 Q 427.816 228.171 427.792 227.811 Q 427.768 227.451 427.768 227.451 L 427.768 227.451 Q 427.528 227.211 427.624 227.139 Q 427.72 227.067 427.816 226.875 L 427.816 226.875 Q 428.104 226.875 428.008 226.347 L 428.008 226.347 Q 427.912 225.963 428.392 224.667 Q 428.872 223.371 429.592 222.219 L 429.592 222.219 Q 429.88 221.739 430.456 220.947 Q 431.032 220.155 431.728 219.363 Q 432.424 218.571 433 218.091 L 433 218.091 Q 434.2 217.083 435.112 216.603 Q 436.024 216.123 437.08 215.883 L 437.08 215.883 Q 438.136 215.643 438.544 215.643 Q 438.952 215.643 439.672 216.411 L 439.672 216.411 Q 440.776 216.891 441.28 217.563 Q 441.784 218.235 441.928 219.531 L 441.928 219.531 Q 442.072 220.971 441.712 222.819 Q 441.352 224.667 439.432 227.403 L 439.432 227.403 Q 438.232 229.131 437.224 229.971 Q 436.216 230.811 434.824 231.627 L 434.824 231.627 Q 433.816 232.299 433 232.611 Q 432.184 232.923 431.08 233.019 Z M 435.688 227.931 L 435.688 227.931 Q 436.84 226.635 437.536 225.483 Q 438.232 224.331 438.856 222.555 L 438.856 222.555 Q 439.048 222.027 439.096 221.235 Q 439.144 220.443 439.072 219.747 Q 439 219.051 438.712 218.955 L 438.712 218.955 Q 438.136 218.619 437.32 218.739 Q 436.504 218.859 435.544 219.675 L 435.544 219.675 Q 434.056 220.923 432.952 222.771 Q 431.848 224.619 430.792 226.971 L 430.792 226.971 Q 430.072 228.699 430.48 229.731 Q 430.888 230.763 432.256 230.451 Q 433.624 230.139 435.688 227.931 Z M 449.368 225.579 L 449.368 225.579 Q 448.024 225.819 447.592 224.283 Q 447.16 222.747 447.832 220.059 L 447.832 220.059 Q 448.12 219.483 448.312 218.931 Q 448.504 218.379 448.504 218.043 L 448.504 218.043 Q 448.696 217.419 449.008 216.579 Q 449.32 215.739 449.656 214.995 Q 449.992 214.251 450.136 214.011 L 450.136 214.011 Q 450.328 214.011 450.544 213.675 Q 450.76 213.339 450.76 213.003 L 450.76 213.003 Q 450.76 212.619 450.928 212.139 Q 451.096 211.659 451.288 211.467 L 451.288 211.467 Q 451.288 211.227 451.48 210.939 Q 451.672 210.651 451.672 210.459 L 451.672 210.459 Q 451.672 210.267 451.792 210.123 Q 451.912 209.979 451.912 209.787 L 451.912 209.787 Q 452.344 209.019 453.04 207.507 Q 453.736 205.995 454.432 204.315 Q 455.128 202.635 455.608 201.339 Q 456.088 200.043 456.088 199.755 L 456.088 199.755 Q 456.184 199.371 456.376 199.179 Q 456.568 198.987 456.952 199.083 L 456.952 199.083 Q 457.144 198.939 457.336 198.915 Q 457.528 198.891 457.72 198.891 L 457.72 198.891 Q 457.72 198.891 457.888 199.083 Q 458.056 199.275 458.392 199.659 L 458.392 199.659 Q 458.776 199.995 458.824 200.427 Q 458.872 200.859 458.872 201.435 L 458.872 201.435 Q 458.824 202.347 458.2 203.499 Q 457.576 204.651 456.808 206.043 L 456.808 206.043 Q 456.328 206.955 455.872 207.771 Q 455.416 208.587 455.416 208.779 L 455.416 208.779 Q 455.416 208.971 455.224 209.355 Q 455.032 209.739 454.792 210.315 L 454.792 210.315 Q 454.504 210.795 454.168 211.467 Q 453.832 212.139 453.568 212.691 Q 453.304 213.243 453.304 213.387 L 453.304 213.387 Q 453.256 213.579 453.184 213.771 Q 453.112 213.963 452.92 214.155 L 452.92 214.155 Q 452.728 214.155 452.704 214.419 Q 452.68 214.683 452.68 214.683 L 452.68 214.683 Q 452.68 214.875 452.464 215.571 Q 452.248 216.267 451.768 217.227 L 451.768 217.227 Q 450.856 219.771 450.472 221.283 Q 450.088 222.795 449.992 223.851 L 449.992 223.851 Q 449.896 225.003 449.824 225.195 Q 449.752 225.387 449.368 225.579 Z M 446.776 233.259 L 446.776 233.259 Q 445.864 233.595 445.264 233.571 Q 444.664 233.547 443.944 233.019 L 443.944 233.019 Q 443.032 232.155 443.344 231.267 Q 443.656 230.379 444.904 229.515 L 444.904 229.515 Q 445.768 228.987 446.176 228.939 Q 446.584 228.891 447.448 229.275 L 447.448 229.275 Q 448.888 230.187 448.72 231.291 Q 448.552 232.395 446.776 233.259 Z" stroke-linecap="round" />
</g>
</svg>